<svg xmlns="http://www.w3.org/2000/svg" xmlns:xlink="http://www.w3.org/1999/xlink" width="877" height="900" viewBox="0 0 877 900"><defs><path id="q3efa" d="M1262.1 1103.36s-.59-10.07-5.33-18.96c-4.74-8.9-23.71-27.27-24.9-34.98-1.18-7.7.6-15.41 8.3-17.78 7.7-2.37 14.82 0 21.94-2.37 7.11-2.38 12.45-11.27 19.56-10.08 7.11 1.18 49.2 10.67 60.46 13.04 11.27 2.37 32.6 4.74 39.13 8.3 6.52 3.56 65.2 40.9 80.62 55.13 15.4 14.23 23.12 20.15 20.74 26.08-2.37 5.93-11.26 7.11-17.78 11.26-6.52 4.15-13.04 5.93-13.04 5.93s-14.82-4.74-27.27-5.33c-12.45-.6-15.41-1.19-23.71 1.18s-18.38-1.18-30.83-3.55c-12.44-2.38-49.79-7.71-61.65-8.3-11.85-.6-30.23-13.04-34.97-14.23-4.74-1.19-11.26-5.34-11.26-5.34"/><path id="q3efb" d="M2030.95 1077.88s6.52 2.96 13.63 0c7.12-2.97 9.49-13.05 15.42-17.2 5.92-4.14 13.63-7.7 13.63-14.22 0-6.52-.6-22.53-7.7-22.53-7.12 0-37.94 5.93-48.62 5.93-10.67 0-49.2-9.48-49.2-9.48-17.78-.6-37.34-6.53-59.87 7.7-22.52 14.23-72.91 31.42-80.02 43.27-7.12 11.86-8.3 25.5-4.15 32.6 4.15 7.12 16 10.68 28.45 10.09 12.45-.6 38.53-7.12 53.35-6.53 14.82.6 33.2 4.75 47.42 2.38 14.23-2.38 39.72-13.64 47.43-10.08 7.7 3.56 14.22 0 17.19-4.15 2.96-4.15 13.04-17.78 13.04-17.78"/><path id="q3efc" d="M1465.72 1678.08s5.33-7.7 11.26-7.7 38.24-8.9 46.54-14.53c8.3-5.63 34.38-32.3 59.28-29.64 24.9 2.67 34.08 15.11 44.45 14.23 10.38-.9 29.05-17.87 48.32-14.42 19.26 3.45 63.42 18.8 77.06 25.8 13.63 7 38.53 18.55 40.6 23.59 2.08 5.04 5.93 15.12 9.49 18.38 3.56 3.26 9.19 10.07 6.52 12.15-2.67 2.07-29.94-.9-38.23 1.78-8.3 2.66-38.54 34.97-50.1 40.3-11.55 5.34-37.04 10.38-59.87 11.86-22.82 1.48-52.16 2.08-67.87-2.67-15.71-4.74-31.12-9.48-40.01-10.96-8.9-1.48-32.6-16-36.46-21.94-3.85-5.92-5.33-15.4-17.2-23.11-11.85-7.71-33.78-23.12-33.78-23.12"/><path id="q3efd" d="M2089.63 932.64s6.52-35.57 0-40.9c-6.52-5.34-27.86-18.97-44.46-17.79-16.6 1.19-34.38 7.7-44.45 8.9-10.08 1.18-21.94-.6-39.13-1.2-17.19-.58-64.02 3.57-77.06 10.09-13.04 6.52-74.7 20.15-94.85 36.16-20.15 16-43.86 29.64-42.68 37.34 1.19 7.7 6.52 13.04 8.9 20.75 2.37 7.7 13.04 19.56 29.04 20.15 16 .6 33.2-21.34 42.09-21.93 8.9-.6 27.86-7.11 37.94-14.23 10.07-7.1 23.12-1.18 33.2-5.33 10.07-4.15 42.67-27.86 58.09-27.27 15.4.6 42.68 4.15 53.94 0 11.26-4.15 26.68-5.93 37.35-5.93 10.67 0 42.08 1.19 42.08 1.19"/><path id="q3efe" d="M1716.96 1488.88s.4-7.51-5.92-11.07c-6.33-3.56-9.49-2.37-13.84-7.11-4.34-4.74-7.1-15.02-19.76-15.41-12.64-.4-75.08 20.55-75.08 20.55s0-19.37-1.58-29.64c-1.58-10.28-2.37-20.55 0-28.46 2.37-7.9 2.76-15.41.4-32.8-2.38-17.39-3.8-51.77-1.9-70.34 1.9-18.58 5.05-47.03 2.29-54.54-2.77-7.5-3.17-10.27-3.17-10.27s4.35-13.84 4.35-20.16-4.35-27.66-4.35-40.7c0-13.05 12.26-58.1 12.65-82.6.4-24.5-5.53-55.33-7.11-75.88-1.58-20.55-18.18-61.65-18.18-67.18 0-5.53-1.19-16.6-7.11-17-5.93-.39-11.86-1.57-11.86-1.57s-3.55-3.56-17.78-13.44c-14.23-9.88-48.61-22.52-78.25-28.45s-91.29-30.43-111.05-32.4c-19.76-1.98-52.16-9.5-66-8.7-13.83.79-40.3 3.16-54.53 11.85-14.23 8.7-21.34 7.12-21.34 14.23s-4.35 32.8 1.97 35.96c6.33 3.16 30.04 13.44 42.68 14.23 12.65.8 49.4-5.93 83.79 3.56 34.38 9.48 52.16 9.48 63.23 16.6 11.06 7.1 32 16.6 39.12 16.99 7.11.4 55.33 5.93 70.74 17 15.41 11.06 41.5 54.13 43.87 80.21 2.37 26.09-11.07 49.8-12.26 63.63-1.18 13.83-4.74 43.87-3.95 62.05.8 18.17-.4 147.4-1.58 179.41-1.18 32.01-1.97 79.44 5.53 95.24 7.51 15.81 10.28 47.82 18.18 52.96 7.9 5.14 32.4 18.18 36.76 17.78 4.34-.4 13.43-12.25 18.57-13.04 5.14-.79 11.86-2.37 16.6-7.11a69.92 69.92 0 0 1 32-17.79c16.21-3.95 43.87-16.6 43.87-16.6"/></defs><g><g transform="translate(-1216 -861)"><use fill="#fff" xlink:href="#q3efa"/></g><g transform="translate(-1216 -861)"><use fill="#fff" xlink:href="#q3efb"/></g><g transform="translate(-1216 -861)"><use fill="#fff" xlink:href="#q3efc"/></g><g transform="translate(-1216 -861)"><use fill="#fff" xlink:href="#q3efd"/></g><g transform="translate(-1216 -861)"><use fill="#fff" xlink:href="#q3efe"/></g></g></svg>