<?xml version="1.0" encoding="UTF-8"?>
<svg width="1760px" height="232px" viewBox="0 0 1760 232" version="1.1" xmlns="http://www.w3.org/2000/svg" xmlns:xlink="http://www.w3.org/1999/xlink">
    <!-- Generator: Sketch 51.3 (57544) - http://www.bohemiancoding.com/sketch -->
    <title>Combined Shape</title>
    <desc>Created with Sketch.</desc>
    <defs>
        <linearGradient x1="0%" y1="69.6517789%" x2="100%" y2="69.6517766%" id="linearGradient-1">
            <stop stop-color="#F8F8F8" offset="0%"></stop>
            <stop stop-color="#F2F2F2" offset="100%"></stop>
        </linearGradient>
    </defs>
    <g id="Page-2" stroke="none" stroke-width="1" fill="none" fill-rule="evenodd">
        <g id="Desktop-HD" transform="translate(-160.000000, -6839.000000)" fill="url(#linearGradient-1)">
            <g id="Menschen" transform="translate(10.000000, 6839.000000)">
                <path d="M325.49,3.238 L406.761,3.238 L406.761,228.694 L350.782,228.694 L350.782,129.845 C350.782,124.705 350.858,119 351.013,112.729 C351.167,106.458 351.86,91.087 353.095,66.618 L351.706,66.618 L306.214,228.694 L248.231,228.694 L202.124,66.31 L200.735,66.31 C202.894,93.967 203.973,115.453 203.973,130.771 L203.973,228.694 L150,228.694 L150,3.238 L231.113,3.238 L278.147,163.309 L279.382,163.309 L325.49,3.238 Z M455.337,3.238 L589.19,3.238 L589.19,52.124 L516.249,52.124 L516.249,87.592 L583.794,87.592 L583.794,136.477 L516.249,136.477 L516.249,179.039 L589.19,179.039 L589.19,228.694 L455.337,228.694 L455.337,3.238 Z M789.047,3.238 L843.329,3.238 L843.329,228.694 L763.448,228.694 L681.1,69.858 L679.712,69.858 C681.664,94.84 682.642,113.911 682.642,127.069 L682.642,228.694 L628.669,228.694 L628.669,3.238 L708.24,3.238 L790.281,159.917 L791.206,159.917 C789.766,137.197 789.047,118.949 789.047,105.172 L789.047,3.238 Z M968.086,0 C991.422,0 1015.22,5.397 1039.485,16.192 L1020.826,63.226 C999.75,53.564 981.553,48.731 966.235,48.731 C958.319,48.731 952.561,50.118 948.964,52.894 C945.364,55.671 943.566,59.116 943.566,63.226 C943.566,67.647 945.853,71.607 950.429,75.101 C955.002,78.597 967.416,84.97 987.67,94.222 C1007.101,102.962 1020.595,112.343 1028.151,122.367 C1035.707,132.389 1039.485,145.011 1039.485,160.225 C1039.485,174.208 1035.938,186.622 1028.845,197.467 C1021.751,208.315 1011.521,216.743 998.156,222.757 C984.791,228.771 969.112,231.778 951.123,231.778 C936.111,231.778 923.519,230.722 913.341,228.617 C903.163,226.511 892.573,222.834 881.573,217.591 L881.573,163.309 C893.19,169.272 905.269,173.925 917.813,177.265 C930.355,180.608 941.87,182.277 952.356,182.277 C961.402,182.277 968.032,180.711 972.25,177.574 C976.464,174.438 978.572,170.403 978.572,165.468 C978.572,162.383 977.724,159.684 976.028,157.371 C974.333,155.059 971.606,152.722 967.854,150.355 C964.1,147.992 954.103,143.16 937.862,135.86 C923.159,129.177 912.132,122.702 904.783,116.429 C897.431,110.159 891.983,102.962 888.436,94.84 C884.89,86.72 883.116,77.106 883.116,66.003 C883.116,45.237 890.673,29.045 905.785,17.426 C920.898,5.81 941.662,0 968.086,0 Z M1175.344,0 C1199.709,0 1222.995,5.297 1245.201,15.883 L1226.542,63.843 C1218.214,59.937 1209.887,56.648 1201.561,53.974 C1193.232,51.301 1184.288,49.965 1174.727,49.965 C1160.231,49.965 1148.921,55.902 1140.802,67.775 C1132.678,79.65 1128.619,96.023 1128.619,116.891 C1128.619,160.278 1145.118,181.969 1178.12,181.969 C1188.091,181.969 1197.756,180.581 1207.112,177.805 C1216.465,175.029 1225.873,171.689 1235.333,167.781 L1235.333,219.288 C1216.519,227.615 1195.237,231.778 1171.488,231.778 C1137.459,231.778 1111.37,221.91 1093.228,202.17 C1075.081,182.431 1066.009,153.903 1066.009,116.583 C1066.009,93.246 1070.403,72.737 1079.193,55.053 C1087.984,37.372 1100.629,23.775 1117.13,14.264 C1133.63,4.757 1153.034,0 1175.344,0 Z M1411.286,3.238 L1472.507,3.238 L1472.507,228.694 L1411.286,228.694 L1411.286,136.785 L1340.504,136.785 L1340.504,228.694 L1279.282,228.694 L1279.282,3.238 L1340.504,3.238 L1340.504,86.82 L1411.286,86.82 L1411.286,3.238 Z M1521.239,3.238 L1655.093,3.238 L1655.093,52.124 L1582.151,52.124 L1582.151,87.592 L1649.696,87.592 L1649.696,136.477 L1582.151,136.477 L1582.151,179.039 L1655.093,179.039 L1655.093,228.694 L1521.239,228.694 L1521.239,3.238 Z M1854.95,3.238 L1909.233,3.238 L1909.233,228.694 L1829.351,228.694 L1747.003,69.858 L1745.615,69.858 C1747.568,94.84 1748.545,113.911 1748.545,127.069 L1748.545,228.694 L1694.572,228.694 L1694.572,3.238 L1774.144,3.238 L1856.184,159.917 L1857.109,159.917 C1855.669,137.197 1854.95,118.949 1854.95,105.172 L1854.95,3.238 Z" id="Combined-Shape"></path>
            </g>
        </g>
    </g>
</svg>