<svg xmlns="http://www.w3.org/2000/svg" xmlns:xlink="http://www.w3.org/1999/xlink" width="147" height="104" viewBox="0 0 147 104"><defs><path id="6nlca" d="M885.91 72.74s-.06-1.08-.57-2.04c-.51-.95-2.55-2.92-2.67-3.75-.13-.83.06-1.66.89-1.91.82-.26 1.59 0 2.35-.26.77-.25 1.34-1.2 2.1-1.08.77.13 5.29 1.15 6.5 1.4 1.2.26 3.5.51 4.2.9.7.38 7 4.39 8.66 5.91 1.65 1.53 2.48 2.17 2.22 2.8-.25.64-1.2.77-1.9 1.21-.7.45-1.4.64-1.4.64s-1.6-.5-2.93-.57c-1.34-.07-1.66-.13-2.55.13-.9.25-1.97-.13-3.31-.39a81.76 81.76 0 0 0-6.62-.89c-1.28-.06-3.25-1.4-3.76-1.53-.5-.12-1.2-.57-1.2-.57"/><path id="6nlcb" d="M968.47 70.01s.7.32 1.47 0c.76-.32 1.02-1.4 1.65-1.85.64-.44 1.47-.82 1.47-1.52 0-.7-.07-2.42-.83-2.42s-4.07.63-5.22.63c-1.15 0-5.28-1.01-5.28-1.01-1.91-.07-4.02-.7-6.43.82-2.42 1.53-7.83 3.38-8.6 4.65-.76 1.27-.89 2.74-.44 3.5.44.77 1.71 1.15 3.05 1.08 1.34-.06 4.14-.76 5.73-.7 1.6.07 3.57.51 5.1.26 1.52-.26 4.26-1.47 5.09-1.08.82.38 1.52 0 1.84-.45l1.4-1.91"/><path id="6nlcc" d="M974.78 54.41s.7-3.82 0-4.4c-.7-.57-3-2.03-4.77-1.9-1.79.12-3.7.82-4.78.95s-2.35-.06-4.2-.13c-1.85-.06-6.88.39-8.28 1.09-1.4.7-8.02 2.16-10.18 3.88-2.17 1.72-4.71 3.18-4.59 4.01.13.83.7 1.4.96 2.23a3.5 3.5 0 0 0 3.12 2.16c1.72.07 3.56-2.29 4.52-2.35.95-.07 3-.77 4.07-1.53 1.09-.76 2.49-.13 3.57-.57 1.08-.45 4.58-3 6.24-2.93 1.65.06 4.58.44 5.79 0 1.21-.45 2.86-.64 4.01-.64s4.52.13 4.52.13"/><path id="6nlcd" d="M907.78 134.46s.57-.83 1.21-.83 4.1-.95 5-1.56c.89-.6 3.69-3.47 6.36-3.18 2.68.29 3.66 1.62 4.78 1.53 1.11-.1 3.12-1.92 5.19-1.55 2.06.37 6.8 2.02 8.27 2.77 1.47.75 4.14 2 4.36 2.53.23.54.64 1.63 1.02 1.98.38.35.99 1.08.7 1.3-.29.22-3.21-.1-4.1.2-.9.28-4.14 3.75-5.38 4.32-1.25.57-3.98 1.12-6.43 1.27-2.46.16-5.6.23-7.3-.28-1.68-.51-3.34-1.02-4.29-1.18-.95-.16-3.5-1.72-3.92-2.35-.4-.64-.57-1.66-1.84-2.49-1.27-.83-3.63-2.48-3.63-2.48"/><path id="6nlce" d="M934.76 114.14s.04-.8-.64-1.19c-.68-.38-1.02-.25-1.48-.76-.47-.51-.77-1.62-2.13-1.66-1.35-.04-8.06 2.2-8.06 2.2s0-2.07-.17-3.17a7.37 7.37 0 0 1 0-3.06c.26-.85.3-1.65.04-3.52-.25-1.87-.4-5.56-.2-7.56s.54-5.05.25-5.85c-.3-.81-.34-1.1-.34-1.1s.46-1.5.46-2.17c0-.68-.46-2.97-.46-4.37s1.31-6.24 1.35-8.87c.05-2.63-.59-5.94-.76-8.15-.17-2.2-1.95-6.62-1.95-7.22 0-.6-.13-1.78-.77-1.82-.63-.04-1.27-.17-1.27-.17s-.38-.38-1.9-1.44c-1.54-1.07-5.23-2.42-8.41-3.06-3.18-.64-9.8-3.27-11.93-3.48-2.12-.21-5.6-1.02-7.09-.93-1.48.08-4.32.34-5.85 1.27-1.53.93-2.3.76-2.3 1.53 0 .76-.46 3.52.22 3.86.68.34 3.22 1.44 4.58 1.53 1.36.08 5.3-.64 9 .38s5.6 1.02 6.79 1.78c1.19.77 3.44 1.78 4.2 1.83.77.04 5.94.63 7.6 1.82 1.65 1.19 4.45 5.82 4.71 8.62.25 2.8-1.19 5.34-1.32 6.83-.12 1.49-.5 4.71-.42 6.66.08 1.96-.04 15.83-.17 19.27-.13 3.44-.21 8.53.6 10.23.8 1.7 1.1 5.13 1.95 5.69.85.55 3.48 1.95 3.94 1.9.47-.04 1.45-1.31 2-1.4a3.15 3.15 0 0 0 1.78-.76 7.5 7.5 0 0 1 3.44-1.9c1.74-.43 4.7-1.8 4.7-1.8"/><path id="6nlcf" d="M993.37 71.85l4.07-.63 2.44-8.45c1.31-4.57 2.08-10.4 2.08-10.4l7.58 15.92s.43 1.19.85 1.2c.53.03.66-.46 1.12-1.2 2.53-4.03 8.79-16.23 8.79-16.23l4.58 19.8 3.12-1.15s-2.93-10.95-3.31-12.54c-.38-1.6-3.18-12.48-3.18-12.48s-.16-.86-.53-.88c-.32 0-.42.31-.73.84-2.14 3.65-9.57 17.86-9.57 17.86l-9.29-19.28s-.38-.91-.7-.8c-.36.12-.39.3-.5.84-.55 2.67-1.8 10.83-3.13 16.44-1.63 6.92-3.69 11.14-3.69 11.14"/><path id="6nlcg" d="M1021.2 85.09l-.96-3.06s-23.1-1.08-23.11 15.67c0 13.87 21.96 9.42 21.96 9.42V97.5h-3.5v7.39s-14.42 2.99-14.83-7.58c-.51-13.17 20.43-12.22 20.43-12.22"/><path id="6nlch" d="M1013.61 132.01s5.67.26 5.67 6.5c0 9.3-16.01 8.4-16.01 8.4s.16-10.95.16-13.05c0-2.1-.32-14.2-.32-14.2s13.88-1.2 13.81 6.3c-.03 4.34-3.3 6.05-3.3 6.05zm-6.68-.7s6.24-.76 5.98-4.77c-.25-4.01-5.98-3.63-5.98-3.63zm0 12.22s8.21.13 8.21-4.8c0-4.94-8.21-4.8-8.21-4.8z"/></defs><g><g transform="translate(-881 -43)"><use fill="#1d1d1b" xlink:href="#6nlca"/></g><g transform="translate(-881 -43)"><use fill="#1d1d1b" xlink:href="#6nlcb"/></g><g transform="translate(-881 -43)"><use fill="#1d1d1b" xlink:href="#6nlcc"/></g><g transform="translate(-881 -43)"><use fill="#1d1d1b" xlink:href="#6nlcd"/></g><g transform="translate(-881 -43)"><use fill="#1d1d1b" xlink:href="#6nlce"/></g><g transform="translate(-881 -43)"><use fill="#1d1d1b" xlink:href="#6nlcf"/></g><g transform="translate(-881 -43)"><use fill="#1d1d1b" xlink:href="#6nlcg"/></g><g transform="translate(-881 -43)"><use fill="#1d1d1b" xlink:href="#6nlch"/></g></g></svg>