<?xml version="1.0" encoding="UTF-8"?>
<svg width="1760px" height="232px" viewBox="0 0 1760 232" version="1.1" xmlns="http://www.w3.org/2000/svg" xmlns:xlink="http://www.w3.org/1999/xlink">
    <!-- Generator: Sketch 51.3 (57544) - http://www.bohemiancoding.com/sketch -->
    <title>Combined Shape</title>
    <desc>Created with Sketch.</desc>
    <defs>
        <linearGradient x1="0%" y1="69.6517789%" x2="100%" y2="69.6517766%" id="linearGradient-1">
            <stop stop-color="#F8F8F8" offset="0%"></stop>
            <stop stop-color="#F2F2F2" offset="100%"></stop>
        </linearGradient>
    </defs>
    <g id="Page-2" stroke="none" stroke-width="1" fill="none" fill-rule="evenodd">
        <g id="Desktop-HD" transform="translate(-160.000000, -738.000000)" fill="url(#linearGradient-1)">
            <g id="Menschen" transform="translate(-90.000000, -54.000000)">
                <path d="M425.49,795.238 L506.761,795.238 L506.761,1020.694 L450.782,1020.694 L450.782,921.845 C450.782,916.705 450.858,911 451.013,904.729 C451.167,898.458 451.86,883.087 453.095,858.618 L451.706,858.618 L406.214,1020.694 L348.231,1020.694 L302.124,858.31 L300.735,858.31 C302.894,885.967 303.973,907.453 303.973,922.771 L303.973,1020.694 L250,1020.694 L250,795.238 L331.113,795.238 L378.147,955.309 L379.382,955.309 L425.49,795.238 Z M555.337,795.238 L689.19,795.238 L689.19,844.124 L616.249,844.124 L616.249,879.592 L683.794,879.592 L683.794,928.477 L616.249,928.477 L616.249,971.039 L689.19,971.039 L689.19,1020.694 L555.337,1020.694 L555.337,795.238 Z M889.047,795.238 L943.329,795.238 L943.329,1020.694 L863.448,1020.694 L781.1,861.858 L779.712,861.858 C781.664,886.84 782.642,905.911 782.642,919.069 L782.642,1020.694 L728.669,1020.694 L728.669,795.238 L808.24,795.238 L890.281,951.917 L891.206,951.917 C889.766,929.197 889.047,910.949 889.047,897.172 L889.047,795.238 Z M1068.086,792 C1091.422,792 1115.22,797.397 1139.485,808.192 L1120.826,855.226 C1099.75,845.564 1081.553,840.731 1066.235,840.731 C1058.319,840.731 1052.561,842.118 1048.964,844.894 C1045.364,847.671 1043.566,851.116 1043.566,855.226 C1043.566,859.647 1045.853,863.607 1050.429,867.101 C1055.002,870.597 1067.416,876.97 1087.67,886.222 C1107.101,894.962 1120.595,904.343 1128.151,914.367 C1135.707,924.389 1139.485,937.011 1139.485,952.225 C1139.485,966.208 1135.938,978.622 1128.845,989.467 C1121.751,1000.315 1111.521,1008.743 1098.156,1014.757 C1084.791,1020.771 1069.112,1023.778 1051.123,1023.778 C1036.111,1023.778 1023.519,1022.722 1013.341,1020.617 C1003.163,1018.511 992.573,1014.834 981.573,1009.591 L981.573,955.309 C993.19,961.272 1005.269,965.925 1017.813,969.265 C1030.355,972.608 1041.87,974.277 1052.356,974.277 C1061.402,974.277 1068.032,972.711 1072.25,969.574 C1076.464,966.438 1078.572,962.403 1078.572,957.468 C1078.572,954.383 1077.724,951.684 1076.028,949.371 C1074.333,947.059 1071.606,944.722 1067.854,942.355 C1064.1,939.992 1054.103,935.16 1037.862,927.86 C1023.159,921.177 1012.132,914.702 1004.783,908.429 C997.431,902.159 991.983,894.962 988.436,886.84 C984.89,878.72 983.116,869.106 983.116,858.003 C983.116,837.237 990.673,821.045 1005.785,809.426 C1020.898,797.81 1041.662,792 1068.086,792 Z M1275.344,792 C1299.709,792 1322.995,797.297 1345.201,807.883 L1326.542,855.843 C1318.214,851.937 1309.887,848.648 1301.561,845.974 C1293.232,843.301 1284.288,841.965 1274.727,841.965 C1260.231,841.965 1248.921,847.902 1240.802,859.775 C1232.678,871.65 1228.619,888.023 1228.619,908.891 C1228.619,952.278 1245.118,973.969 1278.12,973.969 C1288.091,973.969 1297.756,972.581 1307.112,969.805 C1316.465,967.029 1325.873,963.689 1335.333,959.781 L1335.333,1011.288 C1316.519,1019.615 1295.237,1023.778 1271.488,1023.778 C1237.459,1023.778 1211.37,1013.91 1193.228,994.17 C1175.081,974.431 1166.009,945.903 1166.009,908.583 C1166.009,885.246 1170.403,864.737 1179.193,847.053 C1187.984,829.372 1200.629,815.775 1217.13,806.264 C1233.63,796.757 1253.034,792 1275.344,792 Z M1511.286,795.238 L1572.507,795.238 L1572.507,1020.694 L1511.286,1020.694 L1511.286,928.785 L1440.504,928.785 L1440.504,1020.694 L1379.282,1020.694 L1379.282,795.238 L1440.504,795.238 L1440.504,878.82 L1511.286,878.82 L1511.286,795.238 Z M1621.239,795.238 L1755.093,795.238 L1755.093,844.124 L1682.151,844.124 L1682.151,879.592 L1749.696,879.592 L1749.696,928.477 L1682.151,928.477 L1682.151,971.039 L1755.093,971.039 L1755.093,1020.694 L1621.239,1020.694 L1621.239,795.238 Z M1954.95,795.238 L2009.233,795.238 L2009.233,1020.694 L1929.351,1020.694 L1847.003,861.858 L1845.615,861.858 C1847.568,886.84 1848.545,905.911 1848.545,919.069 L1848.545,1020.694 L1794.572,1020.694 L1794.572,795.238 L1874.144,795.238 L1956.184,951.917 L1957.109,951.917 C1955.669,929.197 1954.95,910.949 1954.95,897.172 L1954.95,795.238 Z" id="Combined-Shape"></path>
            </g>
        </g>
    </g>
</svg>