<svg xmlns="http://www.w3.org/2000/svg" xmlns:xlink="http://www.w3.org/1999/xlink" width="91" height="92" viewBox="0 0 91 92"><defs><path id="gvxua" d="M696.7 14061.78h-80.54a5 5 0 0 0-5 5v80.53a5 5 0 0 0 5 5h43.35v-35.06h-11.8v-13.66h11.8v-10.08c0-11.69 7.15-18.06 17.58-18.06 5 0 9.29.37 10.54.54v12.22h-7.23c-5.68 0-6.78 2.7-6.78 6.66v8.72h13.53l-1.76 13.66h-11.76v35.06h23.06a5 5 0 0 0 5-5v-80.53a5 5 0 0 0-5-5"/></defs><g><g transform="translate(-611 -14061)"><use fill="#fff" xlink:href="#gvxua"/></g></g></svg>