<svg xmlns="http://www.w3.org/2000/svg" xmlns:xlink="http://www.w3.org/1999/xlink" width="320" height="226" viewBox="0 0 320 226"><defs><path id="en6va" d="M188.87 13428.31s-.13-2.35-1.24-4.42c-1.1-2.07-5.53-6.35-5.8-8.15-.28-1.8.14-3.6 1.93-4.14 1.8-.56 3.46 0 5.11-.56 1.66-.55 2.9-2.62 4.56-2.34 1.66.27 11.47 2.48 14.1 3.03 2.62.56 7.6 1.1 9.11 1.94 1.52.83 15.2 9.53 18.79 12.85 3.59 3.31 5.39 4.7 4.83 6.07-.55 1.39-2.62 1.66-4.14 2.63-1.52.97-3.04 1.38-3.04 1.38s-3.45-1.1-6.35-1.24c-2.9-.14-3.6-.28-5.53.27-1.93.56-4.28-.27-7.18-.82-2.9-.56-11.6-1.8-14.37-1.94-2.76-.14-7.05-3.04-8.15-3.31a11.59 11.59 0 0 1-2.63-1.25"/><path id="en6vb" d="M368.05 13422.37s1.52.7 3.18 0c1.65-.69 2.2-3.04 3.59-4 1.38-.97 3.18-1.8 3.18-3.32 0-1.52-.14-5.25-1.8-5.25-1.66 0-8.84 1.38-11.33 1.38-2.48 0-11.46-2.2-11.46-2.2-4.15-.15-8.7-1.53-13.96 1.79-5.25 3.31-16.99 7.32-18.65 10.08-1.65 2.77-1.93 5.94-.96 7.6.96 1.66 3.73 2.49 6.63 2.35 2.9-.14 8.98-1.66 12.43-1.52 3.45.14 7.74 1.1 11.05.55 3.32-.55 9.26-3.18 11.05-2.35 1.8.83 3.32 0 4.01-.96l3.04-4.15"/><path id="en6vc" d="M381.73 13388.52s1.52-8.29 0-9.53c-1.52-1.24-6.5-4.42-10.36-4.14-3.87.27-8.02 1.8-10.36 2.07-2.35.28-5.11-.14-9.12-.28-4-.14-14.92.83-17.96 2.35-3.04 1.52-17.4 4.7-22.1 8.43-4.7 3.73-10.23 6.9-9.95 8.7.28 1.8 1.52 3.04 2.07 4.84.55 1.8 3.04 4.56 6.77 4.7 3.73.13 7.74-4.98 9.81-5.12 2.07-.14 6.5-1.66 8.84-3.31 2.35-1.66 5.39-.28 7.74-1.25 2.35-.96 9.94-6.49 13.54-6.35 3.59.14 9.94.97 12.57 0a27.92 27.92 0 0 1 8.7-1.38c2.49 0 9.8.27 9.8.27"/><path id="en6vd" d="M236.33 13562.24s1.24-1.8 2.63-1.8c1.38 0 8.9-2.07 10.84-3.38 1.93-1.31 8.01-7.53 13.81-6.9 5.8.61 7.95 3.51 10.37 3.3 2.41-.2 6.77-4.16 11.25-3.35 4.5.8 14.79 4.38 17.96 6.01 3.18 1.63 8.98 4.32 9.47 5.5.48 1.17 1.38 3.52 2.2 4.28.84.76 2.15 2.35 1.53 2.83-.62.49-6.98-.2-8.91.42-1.94.62-8.98 8.15-11.68 9.4-2.7 1.23-8.63 2.4-13.95 2.75-5.32.35-12.16.49-15.82-.62-3.66-1.1-7.25-2.2-9.32-2.55-2.07-.35-7.6-3.73-8.5-5.12-.9-1.38-1.24-3.59-4-5.38-2.77-1.8-7.88-5.4-7.88-5.4"/><path id="en6ve" d="M294.88 13518.15s.1-1.75-1.38-2.58c-1.48-.82-2.21-.55-3.22-1.65-1.02-1.1-1.66-3.5-4.61-3.6-2.95-.09-17.5 4.8-17.5 4.8s0-4.52-.37-6.91c-.37-2.4-.55-4.8 0-6.63.56-1.85.65-3.6.1-7.65-.56-4.05-.89-12.06-.45-16.4.45-4.32 1.18-10.95.54-12.7-.65-1.75-.74-2.4-.74-2.4s1.01-3.22 1.01-4.7c0-1.47-1.01-6.44-1.01-9.48s2.86-13.54 2.95-19.25c.09-5.7-1.3-12.9-1.66-17.68-.37-4.79-4.24-14.37-4.24-15.66 0-1.29-.27-3.86-1.65-3.96-1.39-.09-2.77-.37-2.77-.37s-.83-.82-4.14-3.13c-3.32-2.3-11.33-5.25-18.24-6.63-6.9-1.38-21.27-7.09-25.88-7.55-4.6-.46-12.15-2.21-15.38-2.03-3.22.19-9.4.74-12.7 2.77-3.32 2.02-4.98 1.65-4.98 3.31 0 1.66-1.01 7.65.46 8.38 1.47.74 7 3.13 9.95 3.32 2.94.18 11.5-1.38 19.52.83 8.01 2.2 12.16 2.2 14.74 3.87 2.58 1.65 7.46 3.86 9.12 3.96 1.65.09 12.89 1.38 16.48 3.96 3.6 2.58 9.67 12.61 10.22 18.7.56 6.07-2.58 11.6-2.85 14.82-.28 3.22-1.1 10.22-.92 14.46.18 4.24-.1 34.35-.37 41.81-.28 7.46-.46 18.51 1.29 22.2 1.75 3.68 2.4 11.14 4.24 12.34 1.84 1.2 7.55 4.24 8.56 4.14 1.01-.09 3.13-2.85 4.33-3.04 1.2-.18 2.76-.55 3.87-1.65 1.1-1.11 3.68-3.23 7.46-4.15 3.77-.92 10.22-3.87 10.22-3.87"/><path id="en6vf" d="M422.06 13426.37l8.84-1.38s1.19-4.06 5.29-18.32c2.85-9.92 4.52-22.57 4.52-22.57l16.44 34.54s.93 2.58 1.84 2.62c1.15.04 1.43-1.02 2.43-2.61 5.49-8.76 19.08-35.24 19.08-35.24l9.94 42.96 6.77-2.48s-6.35-23.76-7.18-27.22c-.83-3.45-6.9-27.08-6.9-27.08s-.34-1.87-1.15-1.9c-.7-.02-.92.68-1.58 1.8-4.64 7.94-20.76 38.79-20.76 38.79l-20.17-41.86s-.84-1.97-1.54-1.73c-.76.26-.82.66-1.07 1.83-1.2 5.79-3.91 23.5-6.79 35.68-3.54 15-8.01 24.17-8.01 24.17"/><path id="en6vg" d="M482.43 13455.11l-2.07-6.63s-50.15-2.35-50.15 33.99c0 30.11 47.66 20.44 47.66 20.44v-20.86h-7.6v16.03s-31.3 6.48-32.19-16.44c-1.1-28.6 44.35-26.53 44.35-26.53"/><path id="en6vh" d="M466 13556.93s12.3.55 12.29 14.09c0 20.17-34.74 18.23-34.74 18.23s.34-23.76.34-28.32c0-4.56-.69-30.8-.69-30.8s30.12-2.63 29.98 13.67c-.08 9.41-7.18 13.13-7.18 13.13zm-14.51-1.52s13.54-1.66 12.98-10.36c-.55-8.7-12.98-7.88-12.98-7.88zm0 26.52s17.82.28 17.82-10.43c0-10.7-17.82-10.43-17.82-10.43z"/></defs><g><g transform="translate(-178 -13364)"><use fill="#fff" xlink:href="#en6va"/></g><g transform="translate(-178 -13364)"><use fill="#fff" xlink:href="#en6vb"/></g><g transform="translate(-178 -13364)"><use fill="#fff" xlink:href="#en6vc"/></g><g transform="translate(-178 -13364)"><use fill="#fff" xlink:href="#en6vd"/></g><g transform="translate(-178 -13364)"><use fill="#fff" xlink:href="#en6ve"/></g><g transform="translate(-178 -13364)"><use fill="#fff" xlink:href="#en6vf"/></g><g transform="translate(-178 -13364)"><use fill="#fff" xlink:href="#en6vg"/></g><g transform="translate(-178 -13364)"><use fill="#fff" xlink:href="#en6vh"/></g></g></svg>