<?xml version="1.0" encoding="UTF-8"?>
<svg width="1845px" height="340px" viewBox="0 0 1845 340" version="1.1" xmlns="http://www.w3.org/2000/svg" xmlns:xlink="http://www.w3.org/1999/xlink">
    <!-- Generator: Sketch 51.3 (57544) - http://www.bohemiancoding.com/sketch -->
    <title>Fill 16</title>
    <desc>Created with Sketch.</desc>
    <defs>
        <linearGradient x1="0%" y1="45.8042403%" x2="100%" y2="50%" id="linearGradient-1">
            <stop stop-color="#FF8E00" offset="0%"></stop>
            <stop stop-color="#AC005F" offset="100%"></stop>
        </linearGradient>
    </defs>
    <g id="Page-2" stroke="none" stroke-width="1" fill="none" fill-rule="evenodd">
        <g id="Schule" transform="translate(-75.000000, -8060.000000)" fill="url(#linearGradient-1)">
            <g id="Kultur" transform="translate(-11.000000, 7603.000000)">
                <path d="M371.8877,791.6415 L269.8007,791.6415 L203.6507,663.6905 L176.8707,679.7125 L176.8707,791.6415 L85.9997,791.6415 L85.9997,456.9995 L176.8707,456.9995 L176.8707,602.3465 C181.4487,593.3445 190.6797,579.0795 204.5667,559.5435 L274.8367,456.9995 L373.7187,456.9995 L268.1997,606.9245 L371.8877,791.6415 Z M692.5664,456.9999 L692.5664,658.4259 C692.5664,702.2229 680.1684,736.1349 655.3714,760.1689 C630.5724,784.2019 594.8304,796.2199 548.1344,796.2199 C502.5064,796.2199 467.4514,784.5459 442.9594,761.1989 C418.4664,737.8519 406.2214,704.2829 406.2214,660.4859 L406.2214,456.9999 L497.0914,456.9999 L497.0914,653.3909 C497.0914,677.0449 501.5154,694.2119 510.3684,704.8919 C519.2164,715.5739 532.2634,720.9139 549.5084,720.9139 C567.9704,720.9139 581.3614,715.6129 589.6794,705.0059 C597.9944,694.4009 602.1544,677.0449 602.1544,652.9329 L602.1544,456.9999 L692.5664,456.9999 Z M762.8369,791.6415 L762.8369,456.9995 L853.2499,456.9995 L853.2499,718.6245 L982.1159,718.6245 L982.1159,791.6415 L762.8369,791.6415 Z M1183.3135,791.6415 L1092.9015,791.6415 L1092.9015,530.9325 L1011.1865,530.9325 L1011.1865,456.9995 L1264.7995,456.9995 L1264.7995,530.9325 L1183.3135,530.9325 L1183.3135,791.6415 Z M1597.1523,456.9999 L1597.1523,658.4259 C1597.1523,702.2229 1584.7523,736.1349 1559.9573,760.1689 C1535.1573,784.2019 1499.4143,796.2199 1452.7203,796.2199 C1407.0913,796.2199 1372.0353,784.5459 1347.5443,761.1989 C1323.0523,737.8519 1310.8063,704.2829 1310.8063,660.4859 L1310.8063,456.9999 L1401.6763,456.9999 L1401.6763,653.3909 C1401.6763,677.0449 1406.1013,694.2119 1414.9533,704.8919 C1423.8003,715.5739 1436.8473,720.9139 1454.0933,720.9139 C1472.5553,720.9139 1485.9453,715.6129 1494.2643,705.0059 C1502.5803,694.4009 1506.7393,677.0449 1506.7393,652.9329 L1506.7393,456.9999 L1597.1523,456.9999 Z M1757.835,669.8695 L1757.835,791.6415 L1667.422,791.6415 L1667.422,456.9995 L1777.062,456.9995 C1868.008,456.9995 1913.482,489.9605 1913.482,555.8815 C1913.482,594.6435 1894.559,624.6275 1856.717,645.8365 L1954.225,791.6415 L1851.681,791.6415 L1780.724,669.8695 L1757.835,669.8695 Z M1757.835,601.8895 L1774.772,601.8895 C1806.36,601.8895 1822.153,587.9265 1822.153,560.0015 C1822.153,536.9615 1806.664,525.4385 1775.689,525.4385 L1757.835,525.4385 L1757.835,601.8895 Z" id="Fill-16"></path>
            </g>
        </g>
    </g>
</svg>