<?xml version="1.0" encoding="UTF-8"?>
<svg width="1741px" height="481px" viewBox="0 0 1741 481" version="1.1" xmlns="http://www.w3.org/2000/svg" xmlns:xlink="http://www.w3.org/1999/xlink">
    <!-- Generator: Sketch 51.3 (57544) - http://www.bohemiancoding.com/sketch -->
    <title>Fill 9</title>
    <desc>Created with Sketch.</desc>
    <defs>
        <linearGradient x1="-8.47962493%" y1="36.3543397%" x2="100%" y2="26.7380416%" id="linearGradient-1">
            <stop stop-color="#76C7A5" offset="0%"></stop>
            <stop stop-color="#51A8B1" offset="100%"></stop>
        </linearGradient>
    </defs>
    <g id="Page-2" stroke="none" stroke-width="1" fill="none" fill-rule="evenodd">
        <g id="Schule" transform="translate(0.000000, -3600.000000)" fill="url(#linearGradient-1)">
            <g id="Mint" transform="translate(-32.000000, 3123.000000)">
                <path d="M1409.34119,477.461637 L1773,477.461637 L1773,583.473788 L1656.15681,583.473788 L1656.15681,957.307 L1526.5127,957.307 L1526.5127,583.473788 L1409.34119,583.473788 L1409.34119,477.461637 Z M1225.21583,477.461637 L1340.74576,477.461637 L1340.74576,957.307 L1170.73121,957.307 L995.466993,619.250054 L992.513279,619.250054 C996.666305,672.419159 998.749023,713.009595 998.749023,741.015721 L998.749023,957.307 L883.874602,957.307 L883.874602,477.461637 L1053.23139,477.461637 L1227.8401,810.924418 L1229.80887,810.924418 C1226.74346,762.569483 1225.21583,723.733449 1225.21583,694.409547 L1225.21583,477.461637 Z M649.858784,957.307 L649.858784,477.461637 L780.159533,477.461637 L780.159533,957.307 L649.858784,957.307 Z M373.504897,477.461637 L546.472031,477.461637 L546.472031,957.307 L427.331762,957.307 L427.331762,746.923149 C427.331762,735.983802 427.496484,723.840631 427.823671,710.491379 C428.153115,697.147768 429.628844,664.434654 432.254242,612.356551 L429.300528,612.356551 L332.478963,957.307 L209.070588,957.307 L110.935759,611.699919 L107.982046,611.699919 C112.57621,670.563216 114.874421,716.292753 114.874421,748.891915 L114.874421,957.307 L1.13686838e-13,957.307 L1.13686838e-13,477.461637 L172.639947,477.461637 L272.743542,818.145109 L275.370068,818.145109 L373.504897,477.461637 Z" id="Fill-9"></path>
            </g>
        </g>
    </g>
</svg>