<?xml version="1.0" encoding="UTF-8"?>
<svg width="620px" height="620px" viewBox="0 0 620 620" version="1.1" xmlns="http://www.w3.org/2000/svg" xmlns:xlink="http://www.w3.org/1999/xlink">
    <!-- Generator: Sketch 51.2 (57519) - http://www.bohemiancoding.com/sketch -->
    <title>person-fallback-female</title>
    <desc>Created with Sketch.</desc>
    <defs>
        <rect id="path-1" x="0" y="0" width="620" height="620"></rect>
        <linearGradient x1="50%" y1="99.9999937%" x2="50%" y2="3.12384011e-05%" id="linearGradient-3">
            <stop stop-color="#D4D4D4" offset="0%"></stop>
            <stop stop-color="#838382" offset="100%"></stop>
        </linearGradient>
        <polygon id="path-4" points="0 737.762144 770 737.762144 770 0.715480737 0 0.715480737"></polygon>
    </defs>
    <g id="Page-2" stroke="none" stroke-width="1" fill="none" fill-rule="evenodd">
        <g id="Desktop-HD" transform="translate(-10.000000, -3022.000000)">
            <g id="person-fallback-female" transform="translate(10.000000, 3022.000000)">
                <g id="Lehrer_Bild">
                    <mask id="mask-2" fill="white">
                        <use xlink:href="#path-1"></use>
                    </mask>
                    <g id="Mask"></g>
                    <g id="Lehrerin" mask="url(#mask-2)">
                        <g transform="translate(-77.000000, -98.000000)">
                            <polygon id="Fill-1" fill="url(#linearGradient-3)" points="0 738.283281 770 738.283281 770 1.23785595 0 1.23785595"></polygon>
                            <g id="Group-17" stroke-width="1" fill="none" transform="translate(0.000000, 0.522375)">
                                <path d="M513.285095,553.857228 L465.22323,532.879284 L304.774789,532.879284 L256.712924,553.857228 C236.479998,562.68933 223.758905,583.049585 224.693551,605.104464 L229.593326,720.700404 C229.998133,730.238084 237.847924,737.761773 247.394934,737.761773 L522.605561,737.761773 C532.152571,737.761773 540.002362,730.238084 540.407169,720.700404 L545.306944,605.104464 C546.239114,583.049585 533.518021,562.68933 513.285095,553.857228" id="Fill-3" fill="#DBD9DC"></path>
                                <mask id="mask-5" fill="white">
                                    <use xlink:href="#path-4"></use>
                                </mask>
                                <g id="Clip-6"></g>
                                <polygon id="Fill-5" fill="#F2F2F2" mask="url(#mask-5)" points="340.452653 559.607441 429.538682 559.607441 429.538682 470.527613 340.452653 470.527613"></polygon>
                                <path d="M340.454386,496.397193 C354.084129,502.657031 369.182071,506.153974 384.996781,506.153974 C400.81273,506.153974 415.909434,502.657031 429.539177,496.397193 L429.539177,470.523528 L340.454386,470.523528 L340.454386,496.397193 Z" id="Fill-7" fill="#B3B3B3" mask="url(#mask-5)"></path>
                                <path d="M384.994305,185.46152 C414.516749,185.46152 438.448646,209.392989 438.448646,238.912139 C438.448646,268.432528 414.516749,292.362759 384.994305,292.362759 C355.471862,292.362759 331.539965,268.432528 331.539965,238.912139 C331.539965,209.392989 355.471862,185.46152 384.994305,185.46152" id="Fill-8" fill="#666666" mask="url(#mask-5)"></path>
                                <path d="M384.994305,229.999453 C444.037955,229.999453 491.902987,275.865729 491.902987,332.444411 C491.902987,389.023093 444.037955,434.889369 384.994305,434.889369 C325.950656,434.889369 278.085624,389.023093 278.085624,332.444411 C278.085624,275.865729 325.950656,229.999453 384.994305,229.999453" id="Fill-9" fill="#808080" mask="url(#mask-5)"></path>
                                <path d="M349.364227,345.811027 C313.730063,310.179344 308.403198,279.46071 309.244998,260.182342 C289.998712,278.708094 278.095899,304.243824 278.095899,332.44961 C278.095899,351.768828 283.698825,369.810578 293.411719,385.209506 L349.364227,345.811027 Z" id="Fill-10" fill="#666666" mask="url(#mask-5)"></path>
                                <path d="M486.571418,363.999216 C485.858363,363.767737 481.463669,363.627859 481.463669,363.627859 C476.738444,363.627859 472.206338,361.750031 468.865132,358.409058 L461.176273,350.720735 C458.090084,347.63476 454.012302,345.780452 449.654746,345.536594 C432.314891,344.566115 384.230743,340.252187 346.027849,321.508573 C341.950068,319.508197 336.968588,320.598748 334.523653,324.426199 C324.516129,340.093742 312.134232,352.525529 305.189376,358.914104 C301.886547,361.95304 297.599553,363.626621 293.110775,363.626621 L286.701949,363.626621 C286.696997,363.626621 286.693283,363.629097 286.688331,363.629097 C285.712833,363.647665 284.715051,363.750407 283.698701,363.945988 C275.028154,365.620807 269.186305,373.90949 269.186305,382.739117 L269.186305,389.194536 C269.186305,397.714698 274.641916,405.753335 282.94108,407.690579 C284.810373,408.126305 286.62891,408.25009 288.369457,408.11145 C292.798814,407.757423 296.666145,410.9808 297.463379,415.35167 C305.037109,456.85698 341.301386,488.336894 384.998267,488.336894 C428.695148,488.336894 464.959424,456.85698 472.533154,415.35167 C473.330389,410.9808 477.19772,407.757423 481.627077,408.11145 C483.368862,408.25009 485.187399,408.126305 487.055453,407.690579 C495.353379,405.753335 500.810228,397.714698 500.810228,389.194536 L500.810228,381.077914 C500.80899,372.695154 494.546241,366.58881 486.571418,363.999216" id="Fill-11" fill="#F2F2F2" mask="url(#mask-5)"></path>
                                <path d="M331.546402,399.259419 L331.546402,328.848935 C322.156611,342.41336 311.462029,353.143095 305.189376,358.915218 C301.886547,361.954154 297.599553,363.627735 293.110775,363.627735 L286.701949,363.627735 C286.696997,363.627735 286.693283,363.630211 286.688331,363.630211 C285.712833,363.647541 284.715051,363.751521 283.699939,363.947102 C275.029392,365.621921 269.187543,373.910605 269.187543,382.740231 L269.187543,389.19565 C269.187543,397.715812 274.643154,405.754449 282.942318,407.691693 C284.811611,408.127419 286.630148,408.251204 288.370695,408.112564 C292.800051,407.758538 296.667383,410.981914 297.464617,415.352784 C305.038347,456.858094 341.302624,488.338008 384.999505,488.338008 C391.056756,488.338008 396.94936,487.676993 402.664939,486.524549 C362.076531,478.212347 331.546402,442.300908 331.546402,399.259419" id="Fill-12" fill="#CCCCCC" mask="url(#mask-5)"></path>
                                <path d="M272.550042,604.61415 L239.999592,565.557319 C229.879415,575.904557 224.053659,590.060677 224.691199,605.104341 L229.590974,720.70028 C229.995781,730.23796 237.845572,737.761649 247.392582,737.761649 L287.003016,737.761649 L287.003016,644.533766 C287.004254,629.946872 281.889077,615.821697 272.550042,604.61415" id="Fill-13" fill="#999999" mask="url(#mask-5)"></path>
                                <path d="M497.446987,604.61415 L529.997437,565.556081 C540.117614,575.903319 545.94337,590.05944 545.30583,605.104341 L540.406055,720.699043 C540.001248,730.236723 532.151457,737.761649 522.604447,737.761649 L482.994013,737.761649 L482.994013,644.532528 C482.994013,629.946872 488.107952,615.821697 497.446987,604.61415" id="Fill-14" fill="#999999" mask="url(#mask-5)"></path>
                                <path d="M444.748534,512.454289 C441.269916,508.974676 435.628614,508.974676 432.149997,512.454289 L389.084466,555.515584 C386.827698,557.772195 383.168341,557.772195 380.911572,555.515584 L337.846042,512.454289 C334.367424,508.974676 328.726122,508.974676 325.247505,512.454289 L304.82146,532.878912 L337.784145,586.380284 C340.651219,591.032147 346.993196,592.029859 351.151444,588.483401 L370.907762,571.626279 C372.947891,569.885854 376.089788,571.334145 376.089788,574.015341 L376.089788,737.762639 L393.907489,737.762639 L393.907489,574.015341 C393.907489,571.334145 397.049386,569.885854 399.089514,571.626279 L418.845833,588.483401 C423.00408,592.029859 429.346058,591.032147 432.213132,586.380284 L465.175817,532.878912 L444.748534,512.454289 Z" id="Fill-15" fill="#999999" mask="url(#mask-5)"></path>
                                <path d="M315.049338,666.497292 L348.044209,666.497292 C353.692939,666.497292 358.272087,661.918463 358.272087,656.270126 L358.272087,650.001623 C358.272087,644.353287 353.692939,639.774458 348.044209,639.774458 L315.049338,639.774458 C309.400608,639.774458 304.82146,644.353287 304.82146,650.001623 L304.82146,656.270126 C304.820222,661.918463 309.400608,666.497292 315.049338,666.497292" id="Fill-16" fill="#999999" mask="url(#mask-5)"></path>
                            </g>
                        </g>
                    </g>
                </g>
            </g>
        </g>
    </g>
</svg>