<?xml version="1.0" encoding="UTF-8"?>
<svg width="620px" height="620px" viewBox="0 0 620 620" version="1.1" xmlns="http://www.w3.org/2000/svg" xmlns:xlink="http://www.w3.org/1999/xlink">
    <!-- Generator: Sketch 51.2 (57519) - http://www.bohemiancoding.com/sketch -->
    <title>person-fallback-male</title>
    <desc>Created with Sketch.</desc>
    <defs>
        <rect id="path-1" x="0" y="0" width="620" height="620"></rect>
        <linearGradient x1="50%" y1="99.9999937%" x2="50%" y2="3.12384011e-05%" id="linearGradient-3">
            <stop stop-color="#D4D4D4" offset="0%"></stop>
            <stop stop-color="#838382" offset="100%"></stop>
        </linearGradient>
        <polygon id="path-4" points="0.964757371 0.661138861 375.146099 0.661138861 375.146099 258.711893 0.964757371 258.711893"></polygon>
        <polygon id="path-6" points="0 737.762144 770 737.762144 770 0.715480737 0 0.715480737"></polygon>
    </defs>
    <g id="Page-2" stroke="none" stroke-width="1" fill="none" fill-rule="evenodd">
        <g id="Desktop-HD" transform="translate(-650.000000, -2202.000000)">
            <g id="person-fallback-male" transform="translate(650.000000, 2202.000000)">
                <g id="Lehrer_Bild">
                    <mask id="mask-2" fill="white">
                        <use xlink:href="#path-1"></use>
                    </mask>
                    <g id="Mask"></g>
                    <g id="Lehrer" mask="url(#mask-2)">
                        <g transform="translate(-77.000000, -98.000000)">
                            <polygon id="Fill-1" fill="url(#linearGradient-3)" points="0 738.283281 770 738.283281 770 1.23785595 0 1.23785595"></polygon>
                            <g id="Group-22" stroke-width="1" fill="none" transform="translate(0.000000, 0.522375)">
                                <g id="Group-5" transform="translate(193.118971, 479.050251)">
                                    <mask id="mask-5" fill="white">
                                        <use xlink:href="#path-4"></use>
                                    </mask>
                                    <g id="Clip-4"></g>
                                    <path d="M341.262638,22.3817972 L286.047944,0.661138861 L90.0606608,0.661138861 L34.8459662,22.3817972 C13.6746801,30.710092 0.095692926,51.5258776 1.00805627,74.2566263 L7.71151286,241.608561 C8.09279904,251.163571 15.9500177,258.712017 25.5131206,258.712017 L350.596722,258.712017 C360.161063,258.712017 368.017043,251.163571 368.399568,241.608561 L375.103024,74.2566263 C376.012912,51.5258776 362.435162,30.710092 341.262638,22.3817972" id="Fill-3" fill="#DBD9DC" mask="url(#mask-5)"></path>
                                </g>
                                <polygon id="Fill-6" fill="#999999" points="368.164854 541.786895 356.768359 737.761773 405.579178 737.761773 394.182683 541.786895"></polygon>
                                <path d="M388.762601,550.694878 L373.585431,550.694878 C367.936701,550.694878 363.358791,546.116049 363.358791,540.467712 L363.358791,515.063194 L398.992955,515.063194 L398.992955,540.467712 C398.991717,546.116049 394.411331,550.694878 388.762601,550.694878" id="Fill-8" fill="#666666"></path>
                                <mask id="mask-7" fill="white">
                                    <use xlink:href="#path-6"></use>
                                </mask>
                                <g id="Clip-11"></g>
                                <polygon id="Fill-10" fill="#F2F2F2" mask="url(#mask-7)" points="318.818376 515.064432 443.541045 515.064432 443.541045 408.16443 318.818376 408.16443"></polygon>
                                <path d="M318.814043,441.432304 C336.480715,454.152512 358.055571,461.615545 381.172902,461.615545 C404.291471,461.615545 425.867564,454.15375 443.532998,441.432304 L443.532998,408.168639 L318.814043,408.168639 L318.814043,441.432304 Z" id="Fill-12" fill="#B3B3B3" mask="url(#mask-7)"></path>
                                <path d="M381.172902,185.748578 C336.694879,188.152495 311.388867,212.47265 311.388867,212.47265 C311.388867,212.47265 274.27041,212.47265 274.27041,257.011945 C274.27041,292.643629 283.177404,327.995557 283.177404,327.995557 L488.074156,327.995557 C505.893095,230.008118 463.577757,181.294773 381.172902,185.748578" id="Fill-13" fill="#808080" mask="url(#mask-7)"></path>
                                <path d="M327.722646,291.234701 C294.99517,250.321086 311.390476,212.471165 311.390476,212.471165 C311.390476,212.471165 274.270781,212.471165 274.270781,257.011698 C274.270781,292.643381 283.179013,327.994071 283.179013,327.994071 L327.721408,327.994071 L327.721408,291.234701 L327.722646,291.234701 Z" id="Fill-14" fill="#666666" mask="url(#mask-7)"></path>
                                <path d="M479.16741,319.088936 L470.259178,319.088936 L458.519773,297.665363 C456.666574,294.28354 452.80667,292.55178 449.012378,293.244979 C390.341349,303.97719 351.783166,290.339731 337.172973,283.515431 C333.345256,281.725492 328.789629,282.902693 326.329838,286.337743 C317.313905,298.929214 307.36704,308.851867 301.400159,314.344234 C298.088664,317.393073 293.789291,319.090173 289.286895,319.090173 L282.875593,319.090173 C282.871879,319.090173 282.868166,319.092649 282.863214,319.092649 C281.887715,319.109979 280.889934,319.213959 279.874822,319.40954 C271.204275,321.083121 265.362426,329.373043 265.362426,338.201431 L265.362426,344.65685 C265.362426,353.177013 270.818037,361.215649 279.114725,363.154131 C280.985256,363.589857 282.803793,363.713642 284.545577,363.575003 C288.974934,363.219738 292.842265,366.444353 293.6395,370.813984 C301.21323,412.319294 337.477506,443.799209 381.174387,443.799209 C424.871268,443.799209 461.135545,412.319294 468.709275,370.813984 C469.478037,366.606512 473.110159,363.539105 477.334018,363.62823 L479.169886,363.62823 C489.010288,363.62823 496.987587,355.651487 496.987587,345.813008 L496.987587,336.905396 C496.985111,327.063204 489.007812,319.088936 479.16741,319.088936" id="Fill-15" fill="#F2F2F2" mask="url(#mask-7)"></path>
                                <path d="M327.722646,354.719505 L327.722646,284.976225 C327.236135,285.404523 326.718675,285.790734 326.329961,286.337867 C317.314029,298.929337 307.367164,308.851991 301.400283,314.344357 C298.088788,317.393197 293.789415,319.090297 289.287019,319.090297 L282.875717,319.090297 C282.872003,319.090297 282.868289,319.092773 282.863338,319.092773 C281.887839,319.108865 280.890058,319.212845 279.874945,319.409664 C271.204399,321.083245 265.36255,329.371929 265.36255,338.201555 L265.36255,344.656974 C265.36255,353.177136 270.818161,361.215773 279.114849,363.153017 C280.985379,363.589981 282.803916,363.713766 284.545701,363.573888 C288.975058,363.219862 292.842389,366.444476 293.639624,370.814108 C301.213354,412.319418 337.47763,443.799332 381.174511,443.799332 C387.231762,443.799332 393.124367,443.139555 398.838707,441.985873 C358.251537,433.672433 327.722646,397.760994 327.722646,354.719505" id="Fill-16" fill="#CCCCCC" mask="url(#mask-7)"></path>
                                <path d="M381.172902,515.343445 L316.177227,458.476343 C312.647854,455.386654 307.328416,455.564906 304.011969,458.881122 L283.179879,479.711761 L324.575426,541.801378 C330.812178,551.155855 344.048256,552.465507 351.99832,544.515996 L381.172902,515.343445 Z" id="Fill-17" fill="#EDEBED" mask="url(#mask-7)"></path>
                                <path d="M381.172902,515.343445 L446.168577,458.476343 C449.69795,455.386654 455.017387,455.564906 458.333834,458.881122 L479.165924,479.711761 L437.770378,541.801378 C431.533625,551.155855 418.297548,552.465507 410.347484,544.515996 L381.172902,515.343445 Z" id="Fill-18" fill="#EDEBED" mask="url(#mask-7)"></path>
                                <path d="M521.551206,562.043541 L560.308698,523.288747 C565.716029,532.110946 568.657379,542.468087 568.221624,553.306754 L561.518167,720.658688 C561.136881,730.213698 553.279662,737.762144 543.715322,737.762144 L505.894952,737.762144 L505.894952,599.836521 C505.894952,585.661832 511.525113,572.066461 521.551206,562.043541" id="Fill-19" fill="#EDEBED" mask="url(#mask-7)"></path>
                                <path d="M256.452709,599.836769 L256.452709,737.762392 L218.631101,737.762392 C209.069236,737.762392 201.21078,730.213946 200.828256,720.657698 L194.124799,553.307001 C193.691519,542.467097 196.63287,532.111194 202.038963,523.288995 L240.797693,562.043789 C250.82131,572.06547 256.452709,585.66208 256.452709,599.836769" id="Fill-20" fill="#EDEBED" mask="url(#mask-7)"></path>
                                <path d="M293.408376,621.958616 L335.311479,621.958616 C340.958971,621.958616 345.538119,617.379787 345.538119,611.730212 L345.538119,605.462948 C345.538119,599.813373 340.958971,595.235782 335.311479,595.235782 L293.408376,595.235782 C287.759646,595.235782 283.17926,599.813373 283.17926,605.462948 L283.17926,611.730212 C283.17926,617.379787 287.759646,621.958616 293.408376,621.958616" id="Fill-21" fill="#EDEBED" mask="url(#mask-7)"></path>
                            </g>
                        </g>
                    </g>
                </g>
            </g>
        </g>
    </g>
</svg>